<mxfile host="app.diagrams.net" modified="2022-02-04T12:14:03.725Z" agent="5.0 (Macintosh; Intel Mac OS X 10_15_7) AppleWebKit/537.36 (KHTML, like Gecko) Chrome/97.0.4692.99 Safari/537.36" etag="Sdv6ni74wAoDSBmZR6g7" version="16.5.3" type="github">
  <diagram id="S2vLXriCDGzTeVeiGLYz" name="Page-1">
    <mxGraphModel dx="1226" dy="1390" grid="1" gridSize="10" guides="1" tooltips="1" connect="1" arrows="1" fold="1" page="1" pageScale="1" pageWidth="827" pageHeight="1169" math="0" shadow="0">
      <root>
        <mxCell id="0" />
        <mxCell id="1" parent="0" />
        <mxCell id="TSqT_l-4_88kC7An6AmX-1" value="crvDepositor" style="rounded=0;whiteSpace=wrap;html=1;fillColor=#dae8fc;strokeColor=#6c8ebf;" parent="1" vertex="1">
          <mxGeometry x="220" y="470" width="120" height="60" as="geometry" />
        </mxCell>
        <mxCell id="TSqT_l-4_88kC7An6AmX-2" value="VoterProxy" style="rounded=0;whiteSpace=wrap;html=1;fillColor=#dae8fc;strokeColor=#6c8ebf;" parent="1" vertex="1">
          <mxGeometry x="340" y="320" width="120" height="60" as="geometry" />
        </mxCell>
        <mxCell id="TSqT_l-4_88kC7An6AmX-3" value="(CRV) VotingEscrow" style="rounded=0;whiteSpace=wrap;html=1;fillColor=#f8cecc;strokeColor=#b85450;" parent="1" vertex="1">
          <mxGeometry x="260" y="170" width="120" height="60" as="geometry" />
        </mxCell>
        <mxCell id="TSqT_l-4_88kC7An6AmX-4" value="Booster" style="rounded=0;whiteSpace=wrap;html=1;fillColor=#dae8fc;strokeColor=#6c8ebf;" parent="1" vertex="1">
          <mxGeometry x="460" y="470" width="120" height="60" as="geometry" />
        </mxCell>
        <mxCell id="TSqT_l-4_88kC7An6AmX-5" value="(CRV) Gauges" style="rounded=0;whiteSpace=wrap;html=1;fillColor=#f8cecc;strokeColor=#b85450;" parent="1" vertex="1">
          <mxGeometry x="414" y="170" width="120" height="60" as="geometry" />
        </mxCell>
        <mxCell id="J7lD2euTaDM6a25b9HQF-1" value="" style="endArrow=classic;html=1;rounded=0;entryX=1;entryY=0.5;entryDx=0;entryDy=0;" edge="1" parent="1" target="TSqT_l-4_88kC7An6AmX-4">
          <mxGeometry width="50" height="50" relative="1" as="geometry">
            <mxPoint x="660" y="500" as="sourcePoint" />
            <mxPoint x="630" y="510" as="targetPoint" />
          </mxGeometry>
        </mxCell>
        <mxCell id="J7lD2euTaDM6a25b9HQF-2" value="rFactory" style="rounded=0;whiteSpace=wrap;html=1;fillColor=#dae8fc;strokeColor=#6c8ebf;" vertex="1" parent="1">
          <mxGeometry x="310" y="620" width="120" height="60" as="geometry" />
        </mxCell>
        <mxCell id="J7lD2euTaDM6a25b9HQF-3" value="tFactory" style="rounded=0;whiteSpace=wrap;html=1;fillColor=#dae8fc;strokeColor=#6c8ebf;" vertex="1" parent="1">
          <mxGeometry x="450" y="620" width="120" height="60" as="geometry" />
        </mxCell>
        <mxCell id="J7lD2euTaDM6a25b9HQF-4" value="sFactory" style="rounded=0;whiteSpace=wrap;html=1;fillColor=#fff2cc;strokeColor=#d6b656;" vertex="1" parent="1">
          <mxGeometry x="590" y="620" width="120" height="60" as="geometry" />
        </mxCell>
        <mxCell id="J7lD2euTaDM6a25b9HQF-5" value="" style="endArrow=classic;html=1;rounded=0;entryX=0.567;entryY=-0.033;entryDx=0;entryDy=0;exitX=0.5;exitY=1;exitDx=0;exitDy=0;entryPerimeter=0;" edge="1" parent="1" source="TSqT_l-4_88kC7An6AmX-4" target="J7lD2euTaDM6a25b9HQF-2">
          <mxGeometry width="50" height="50" relative="1" as="geometry">
            <mxPoint x="514" y="540" as="sourcePoint" />
            <mxPoint x="434" y="540" as="targetPoint" />
          </mxGeometry>
        </mxCell>
        <mxCell id="J7lD2euTaDM6a25b9HQF-6" value="" style="endArrow=classic;html=1;rounded=0;entryX=0.5;entryY=0;entryDx=0;entryDy=0;exitX=0.5;exitY=1;exitDx=0;exitDy=0;" edge="1" parent="1" source="TSqT_l-4_88kC7An6AmX-4" target="J7lD2euTaDM6a25b9HQF-3">
          <mxGeometry width="50" height="50" relative="1" as="geometry">
            <mxPoint x="530" y="540" as="sourcePoint" />
            <mxPoint x="388.03999999999996" y="628.02" as="targetPoint" />
          </mxGeometry>
        </mxCell>
        <mxCell id="J7lD2euTaDM6a25b9HQF-7" value="" style="endArrow=classic;html=1;rounded=0;entryX=0.5;entryY=0;entryDx=0;entryDy=0;" edge="1" parent="1" target="J7lD2euTaDM6a25b9HQF-4">
          <mxGeometry width="50" height="50" relative="1" as="geometry">
            <mxPoint x="520" y="530" as="sourcePoint" />
            <mxPoint x="398.03999999999996" y="638.02" as="targetPoint" />
          </mxGeometry>
        </mxCell>
        <mxCell id="J7lD2euTaDM6a25b9HQF-8" value="PoolManagerProxy" style="rounded=0;whiteSpace=wrap;html=1;fillColor=#dae8fc;strokeColor=#6c8ebf;" vertex="1" parent="1">
          <mxGeometry x="660" y="470" width="120" height="60" as="geometry" />
        </mxCell>
        <mxCell id="J7lD2euTaDM6a25b9HQF-9" value="" style="rounded=0;whiteSpace=wrap;html=1;fillColor=#f8cecc;strokeColor=#b85450;" vertex="1" parent="1">
          <mxGeometry x="590" y="20" width="60" height="30" as="geometry" />
        </mxCell>
        <mxCell id="J7lD2euTaDM6a25b9HQF-10" value="External" style="text;html=1;strokeColor=none;fillColor=none;align=center;verticalAlign=middle;whiteSpace=wrap;rounded=0;" vertex="1" parent="1">
          <mxGeometry x="680" y="20" width="60" height="30" as="geometry" />
        </mxCell>
        <mxCell id="J7lD2euTaDM6a25b9HQF-11" value="" style="rounded=0;whiteSpace=wrap;html=1;fillColor=#dae8fc;strokeColor=#6c8ebf;" vertex="1" parent="1">
          <mxGeometry x="590" y="55" width="60" height="30" as="geometry" />
        </mxCell>
        <mxCell id="J7lD2euTaDM6a25b9HQF-12" value="Internal - fixed" style="text;html=1;strokeColor=none;fillColor=none;align=center;verticalAlign=middle;whiteSpace=wrap;rounded=0;" vertex="1" parent="1">
          <mxGeometry x="680" y="55" width="90" height="30" as="geometry" />
        </mxCell>
        <mxCell id="J7lD2euTaDM6a25b9HQF-13" value="" style="rounded=0;whiteSpace=wrap;html=1;fillColor=#fff2cc;strokeColor=#d6b656;" vertex="1" parent="1">
          <mxGeometry x="590" y="90" width="60" height="30" as="geometry" />
        </mxCell>
        <mxCell id="J7lD2euTaDM6a25b9HQF-14" value="Internal - replaceable" style="text;html=1;strokeColor=none;fillColor=none;align=center;verticalAlign=middle;whiteSpace=wrap;rounded=0;" vertex="1" parent="1">
          <mxGeometry x="680" y="90" width="120" height="30" as="geometry" />
        </mxCell>
        <mxCell id="J7lD2euTaDM6a25b9HQF-15" value="" style="endArrow=classic;html=1;rounded=0;entryX=1;entryY=0.5;entryDx=0;entryDy=0;" edge="1" parent="1">
          <mxGeometry width="50" height="50" relative="1" as="geometry">
            <mxPoint x="860" y="500" as="sourcePoint" />
            <mxPoint x="780" y="500" as="targetPoint" />
          </mxGeometry>
        </mxCell>
        <mxCell id="J7lD2euTaDM6a25b9HQF-16" value="PoolManager&lt;br&gt;SecondaryProxy" style="rounded=0;whiteSpace=wrap;html=1;fillColor=#fff2cc;strokeColor=#d6b656;" vertex="1" parent="1">
          <mxGeometry x="860" y="470" width="120" height="60" as="geometry" />
        </mxCell>
        <mxCell id="J7lD2euTaDM6a25b9HQF-17" value="" style="endArrow=classic;html=1;rounded=0;entryX=1;entryY=0.5;entryDx=0;entryDy=0;" edge="1" parent="1">
          <mxGeometry width="50" height="50" relative="1" as="geometry">
            <mxPoint x="1060" y="500" as="sourcePoint" />
            <mxPoint x="980" y="500" as="targetPoint" />
          </mxGeometry>
        </mxCell>
        <mxCell id="J7lD2euTaDM6a25b9HQF-18" value="PoolManagerV3" style="rounded=0;whiteSpace=wrap;html=1;fillColor=#fff2cc;strokeColor=#d6b656;" vertex="1" parent="1">
          <mxGeometry x="1060" y="470" width="120" height="60" as="geometry" />
        </mxCell>
        <mxCell id="J7lD2euTaDM6a25b9HQF-19" value="addPool" style="text;html=1;strokeColor=none;fillColor=none;align=center;verticalAlign=middle;whiteSpace=wrap;rounded=0;" vertex="1" parent="1">
          <mxGeometry x="590" y="470" width="60" height="30" as="geometry" />
        </mxCell>
      </root>
    </mxGraphModel>
  </diagram>
</mxfile>
